<svg xmlns="http://www.w3.org/2000/svg" viewBox="0 0 260.79 294.8"><defs><style>.cls-1{fill:#f4eeea;}</style></defs><title>Ресdsfsfdурс 1</title><g id="Слой_2" data-name="Слой 2"><g id="Layer_1" data-name="Layer 1"><path class="cls-1" d="M1.78,289.65a7.27,7.27,0,0,0,4.52,1.92c1.37,0,2.62-.72,2.62-2.2,0-3.23-8.54-2.67-8.54-8.23,0-3,2.6-5.25,6.07-5.25a7.67,7.67,0,0,1,5.4,1.94l-1.42,2.67a6.64,6.64,0,0,0-4-1.58c-1.53,0-2.72.9-2.72,2.17,0,3.21,8.51,2.42,8.51,8.21,0,2.88-2.19,5.3-6,5.3A8.78,8.78,0,0,1,0,292.13Z"/><path class="cls-1" d="M21.11,276.19h3.28v7.68h8.29v-7.68H36v18.1H32.68V286.7H24.39v7.59H21.11Z"/><path class="cls-1" d="M55.16,289.65H48.81l-1.53,4.64H43.89l6.38-18.1h3.44l6.37,18.1H56.69ZM52,279.33s-.4,1.78-.76,2.8L49.6,287h4.74l-1.6-4.85c-.33-1-.72-2.8-.72-2.8Z"/><path class="cls-1" d="M70.71,279H64.77v-2.83H79.94V279H74v15.27H70.71Z"/><path class="cls-1" d="M92.3,279H86.36v-2.83h15.17V279H95.59v15.27H92.3Z"/><path class="cls-1" d="M109.53,276.19h3.29v18.1h-3.29Z"/><path class="cls-1" d="M135.22,289.65a7.27,7.27,0,0,0,4.52,1.92c1.37,0,2.62-.72,2.62-2.2,0-3.23-8.54-2.67-8.54-8.23,0-3,2.6-5.25,6.07-5.25a7.67,7.67,0,0,1,5.4,1.94l-1.42,2.67a6.64,6.64,0,0,0-4-1.58c-1.53,0-2.72.9-2.72,2.17,0,3.21,8.51,2.42,8.51,8.21,0,2.88-2.19,5.3-6,5.3a8.78,8.78,0,0,1-6.25-2.47Z"/><path class="cls-1" d="M162.63,275.89a9.15,9.15,0,0,1,9.38,9.25,9.47,9.47,0,0,1-2,5.74l2,1.83-1.89,2.09-2-2a9,9,0,0,1-5.53,1.79,9.26,9.26,0,0,1-9.33-9.46A9.14,9.14,0,0,1,162.63,275.89Zm0,15.7a6,6,0,0,0,3.16-.94l-2-1.91,1.89-2.07,2,2a6.72,6.72,0,0,0,1-3.49,6,6,0,1,0-11.93,0C156.69,288.84,159.31,291.59,162.63,291.59Z"/><path class="cls-1" d="M181,276.19h3.29v11.6c0,2.42,1.58,3.8,4,3.8s4-1.38,4-3.82V276.19h3.29v11.6c0,4.06-2.93,6.81-7.29,6.81s-7.32-2.75-7.32-6.81Z"/><path class="cls-1" d="M214.32,289.65H208l-1.53,4.64h-3.39l6.37-18.1h3.45l6.37,18.1h-3.39Zm-3.19-10.32s-.4,1.78-.76,2.8L208.76,287h4.74l-1.6-4.85c-.33-1-.72-2.8-.72-2.8Z"/><path class="cls-1" d="M227.17,276.19H233a8.33,8.33,0,0,1,3.65.52,5.1,5.1,0,0,1,3,4.94,5.2,5.2,0,0,1-3.06,4.94v.06a4.46,4.46,0,0,1,.61.89l3.72,6.75h-3.67l-3.59-6.75h-3.17v6.75h-3.28Zm6.24,8.49a2.63,2.63,0,0,0,2.86-2.85c0-1.73-.74-2.81-3.32-2.81h-2.5v5.66Z"/><path class="cls-1" d="M249.55,276.19h10.83V279h-7.55v4.75h6.1v2.82h-6.1v4.87h8v2.83H249.55Z"/><polygon class="cls-1" points="11.34 11.34 22.68 0 0 0 0 22.68 22.68 22.68 11.34 11.34"/><path class="cls-1" d="M34,238.11H22.68V56.69H34v34H192.76V34h-102V0H34V22.68H68V68H56.69V34H.05V56.69H0v204.1H56.69V102.05H34ZM90.71,56.69h79.37V68H90.71Z"/><polygon class="cls-1" points="102.05 0 102.05 22.68 204.09 22.68 204.09 238.11 192.76 238.11 192.76 170.08 170.08 170.08 170.08 238.11 158.74 238.11 158.74 170.08 136.06 170.08 136.06 238.11 124.72 238.11 124.72 170.08 102.05 170.08 102.05 238.11 90.71 238.11 90.71 124.72 192.76 124.72 192.76 102.05 68.03 102.05 68.03 124.72 68.03 260.79 90.71 260.79 204.09 260.79 215.43 260.79 226.77 260.79 226.77 22.68 226.77 0 204.09 0 102.05 0"/><rect class="cls-1" x="238.11" width="22.68" height="260.79"/><rect class="cls-1" x="102.05" y="136.06" width="22.68" height="22.68"/><rect class="cls-1" x="136.06" y="136.06" width="22.68" height="22.68"/><rect class="cls-1" x="170.08" y="136.06" width="22.68" height="22.68"/></g></g></svg>