<svg xmlns="http://www.w3.org/2000/svg" viewBox="0 0 340.16 56.69"><defs><style>.cls-1{fill:#f4eeea;}</style></defs><title>Ресурс 1</title><g id="Слой_2" data-name="Слой 2"><g id="Layer_1" data-name="Layer 1"><path class="cls-1" d="M70.13,51.32a7.52,7.52,0,0,0,4.7,2c1.44,0,2.74-.75,2.74-2.29,0-3.37-8.9-2.79-8.9-8.58C68.67,39.31,71.38,37,75,37a8,8,0,0,1,5.63,2l-1.48,2.79A6.92,6.92,0,0,0,75,40.14c-1.59,0-2.84.93-2.84,2.25C72.12,45.74,81,44.92,81,51c0,3-2.29,5.53-6.22,5.53a9.12,9.12,0,0,1-6.51-2.58Z"/><path class="cls-1" d="M90.27,37.29H93.7v8h8.64v-8h3.42V56.16h-3.42V48.24H93.7v7.92H90.27Z"/><path class="cls-1" d="M125.78,51.32h-6.62l-1.6,4.84H114l6.64-18.87h3.59l6.64,18.87h-3.53Zm-3.33-10.76s-.42,1.86-.79,2.92L120,48.53h4.94l-1.67-5.05c-.34-1.06-.74-2.92-.74-2.92Z"/><path class="cls-1" d="M142,40.24h-6.2v-3h15.82v3h-6.2V56.16H142Z"/><path class="cls-1" d="M164.5,40.24h-6.2v-3h15.82v3h-6.2V56.16H164.5Z"/><path class="cls-1" d="M182.46,37.29h3.43V56.16h-3.43Z"/><path class="cls-1" d="M209.25,51.32a7.52,7.52,0,0,0,4.7,2c1.44,0,2.74-.75,2.74-2.29,0-3.37-8.9-2.79-8.9-8.58,0-3.14,2.71-5.48,6.32-5.48a8,8,0,0,1,5.64,2l-1.49,2.79a6.92,6.92,0,0,0-4.18-1.64c-1.59,0-2.84.93-2.84,2.25,0,3.35,8.88,2.53,8.88,8.56,0,3-2.29,5.53-6.22,5.53a9.12,9.12,0,0,1-6.51-2.58Z"/><path class="cls-1" d="M237.82,37a9.55,9.55,0,0,1,9.78,9.65,9.86,9.86,0,0,1-2.08,6l2.13,1.91-2,2.18-2.1-2.07a9.37,9.37,0,0,1-5.76,1.86,9.66,9.66,0,0,1-9.73-9.86A9.54,9.54,0,0,1,237.82,37Zm0,16.37a6.14,6.14,0,0,0,3.29-1l-2.1-2,2-2.16,2,2a7,7,0,0,0,1-3.64,6.23,6.23,0,1,0-12.44,0C231.62,50.47,234.36,53.34,237.82,53.34Z"/><path class="cls-1" d="M256.92,37.29h3.43V49.38c0,2.53,1.65,4,4.17,4s4.2-1.43,4.2-4V37.29h3.43V49.38c0,4.23-3.06,7.1-7.6,7.1s-7.63-2.87-7.63-7.1Z"/><path class="cls-1" d="M291.71,51.32h-6.62l-1.59,4.84H280l6.65-18.87h3.59l6.64,18.87h-3.53Zm-3.32-10.76s-.43,1.86-.8,2.92l-1.67,5.05h4.94l-1.67-5.05c-.35-1.06-.75-2.92-.75-2.92Z"/><path class="cls-1" d="M305.1,37.29h6.09a8.78,8.78,0,0,1,3.8.53A5.33,5.33,0,0,1,318.07,43a5.44,5.44,0,0,1-3.18,5.16v0a4.51,4.51,0,0,1,.63.93l3.88,7h-3.82l-3.75-7h-3.3v7H305.1Zm6.52,8.85a2.73,2.73,0,0,0,3-3c0-1.81-.77-2.93-3.45-2.93h-2.61v5.9Z"/><path class="cls-1" d="M328.44,37.29h11.29v3h-7.86v4.95h6.35v3h-6.35v5.07h8.29v2.95H328.44Z"/><polygon class="cls-1" points="2.46 2.46 4.93 0 0 0 0 4.93 4.93 4.93 2.46 2.46"/><path class="cls-1" d="M7.39,51.76H4.93V12.32H7.39v7.4H41.9V7.39H19.72V0H7.39V4.93h7.4v9.86H12.32V7.39H0v4.93H0V56.69H12.32V22.18H7.39ZM19.72,12.32H37v2.47H19.72Z"/><polygon class="cls-1" points="22.18 0 22.18 4.93 44.37 4.93 44.37 51.76 41.9 51.76 41.9 36.97 36.97 36.97 36.97 51.76 34.51 51.76 34.51 36.97 29.58 36.97 29.58 51.76 27.11 51.76 27.11 36.97 22.18 36.97 22.18 51.76 19.72 51.76 19.72 27.11 41.9 27.11 41.9 22.18 14.79 22.18 14.79 27.11 14.79 56.69 19.72 56.69 44.37 56.69 46.83 56.69 49.3 56.69 49.3 4.93 49.3 0 44.37 0 22.18 0"/><rect class="cls-1" x="51.76" width="4.93" height="56.69"/><rect class="cls-1" x="22.18" y="29.58" width="4.93" height="4.93"/><rect class="cls-1" x="29.58" y="29.58" width="4.93" height="4.93"/><rect class="cls-1" x="36.97" y="29.58" width="4.93" height="4.93"/></g></g></svg>