<svg xmlns="http://www.w3.org/2000/svg" xmlns:xlink="http://www.w3.org/1999/xlink" viewBox="0 0 79.37 66.78"><defs><style>.cls-1{fill:none;}.cls-2{fill:#f3efec;}.cls-3{clip-path:url(#clip-path);}</style><clipPath id="clip-path" transform="translate(0 0)"><rect class="cls-1" width="79.37" height="66.78"/></clipPath></defs><title>Ресурс 1</title><g id="Слой_2" data-name="Слой 2"><g id="Слой_1-2" data-name="Слой 1"><rect class="cls-2" x="35.62" y="35.61" width="7.8" height="31.16"/><g class="cls-3"><path class="cls-2" d="M23.37,51.2a7.79,7.79,0,0,1-15.58,0V35.61H0V51.2a15.58,15.58,0,0,0,31.16,0V35.61H23.37Z" transform="translate(0 0)"/><path class="cls-2" d="M19.24,39.2a3.6,3.6,0,1,0-3.59,3.6,3.59,3.59,0,0,0,3.59-3.6" transform="translate(0 0)"/><path class="cls-2" d="M75.23,59.84c-1.78,0-3.12,1-3.12,2.84s1.34,2.87,3.09,2.87,3.17-.89,3.17-2.79S77,59.84,75.23,59.84m0,6.94a3.89,3.89,0,0,1-4.1-4.2c0-2.67,1.77-4,4.12-4a3.86,3.86,0,0,1,4.13,4.19c0,2.57-1.67,4-4.15,4" transform="translate(0 0)"/></g><polygon class="cls-2" points="71.23 48.38 71.23 50.03 78.23 52.51 71.23 54.99 71.23 56.63 79.23 56.63 79.23 55.42 74.32 55.42 72.84 55.51 79.23 53.29 79.23 51.73 72.84 49.52 74.32 49.6 79.23 49.6 79.23 48.38 71.23 48.38"/><path class="cls-2" d="M72.05,35l3.45-1.11v2.21Zm-.81-.85v1.69l8,2.83V37.42l-2.79-1V33.58l2.79-1V31.34Z" transform="translate(0 0)"/><polygon class="cls-2" points="71.23 23.36 71.23 24.6 76.97 24.6 77.94 24.55 71.23 28.36 71.23 29.95 79.23 29.95 79.23 28.74 73.53 28.74 72.64 28.79 79.23 25.06 79.23 23.36 71.23 23.36"/><g class="cls-3"><path class="cls-2" d="M75.24,43.83v1h-3V43.56c0-1.17.41-1.72,1.51-1.72s1.52.78,1.52,2m4-4.29L75.84,42a2.26,2.26,0,0,0-2.18-1.45c-1.67,0-2.42,1.13-2.42,2.74v2.75h8V44.83h-3V43.9a3.41,3.41,0,0,0-.05-.66L79.23,41Z" transform="translate(0 0)"/><path class="cls-2" d="M15.58,23.36a7.79,7.79,0,1,1,7.79-7.78,7.78,7.78,0,0,1-7.79,7.78M66.78,19V15.58a15.58,15.58,0,1,0-31.16,0,15.42,15.42,0,0,0,2.09,7.78H29.07a15.42,15.42,0,0,0,2.09-7.78A15.58,15.58,0,1,0,15.55,31.16H66.78v-7.8H51.2A7.79,7.79,0,1,1,59,15.58V19Z" transform="translate(0 0)"/><path class="cls-2" d="M51.2,66.77A15.57,15.57,0,0,0,66.78,51.19V35.61H59V51.19A7.79,7.79,0,0,1,51.2,59H47.88v7.79Z" transform="translate(0 0)"/></g></g></g></svg>